<svg id="head" width="40" height="40" viewBox="0 0 40 40" fill="none" xmlns="http://www.w3.org/2000/svg">
<path d="M31.5294 14.2118C31.5294 18.8819 28.7623 22.9082 24.7793 24.7351C26.4612 23.3496 27.5322 21.248 27.5322 18.896C27.5322 14.7642 24.2259 11.4042 20.112 11.3205C20.0574 11.3167 20.0075 11.3167 19.9529 11.3167C19.8983 11.3167 19.8485 11.3167 19.7939 11.3205C18.2673 11.4033 17.0588 12.6663 17.0588 14.2108V28.6814C17.0588 33.4748 13.1699 37.3638 8.37646 37.3638V14.2118C8.37646 7.81928 13.5605 2.63528 19.9529 2.63528C26.3454 2.63528 31.5294 7.81928 31.5294 14.2118Z" fill="black"/>
<path d="M21.9992 16.2582C23.1294 15.128 23.1294 13.2956 21.9992 12.1654C20.8689 11.0351 19.0365 11.0351 17.9063 12.1654C16.7761 13.2956 16.7761 15.128 17.9063 16.2582C19.0365 17.3884 20.8689 17.3884 21.9992 16.2582Z" fill="black"/>
</svg>

<svg ="google" id width="32" height="32" viewBox="0 0 32 32" fill="none" xmlns="http://www.w3.org/2000/svg">
<path d="M30.0014 16.3109C30.0014 15.1598 29.9061 14.3198 29.6998 13.4487H16.2871V18.6442H24.1601C24.0014 19.9354 23.1442 21.8798 21.2394 23.1864L21.2127 23.3604L25.4536 26.58L25.7474 26.6087C28.4458 24.1665 30.0014 20.5731 30.0014 16.3109Z" fill="#4285F4"/>
<path d="M16.2863 30C20.1434 30 23.3814 28.7555 25.7466 26.6089L21.2386 23.1865C20.0323 24.011 18.4132 24.5866 16.2863 24.5866C12.5086 24.5866 9.30225 22.1444 8.15929 18.7688L7.99176 18.7827L3.58208 22.1272L3.52441 22.2843C5.87359 26.8577 10.699 30 16.2863 30Z" fill="#34A853"/>
<path d="M8.16013 18.7688C7.85855 17.8977 7.68401 16.9643 7.68401 15.9999C7.68401 15.0354 7.85855 14.1021 8.14426 13.231L8.13627 13.0455L3.67132 9.64734L3.52524 9.71544C2.55703 11.6132 2.00146 13.7444 2.00146 15.9999C2.00146 18.2555 2.55703 20.3865 3.52524 22.2843L8.16013 18.7688Z" fill="#FBBC05"/>
<path d="M16.2864 7.4133C18.9689 7.4133 20.7784 8.54885 21.8102 9.4978L25.8419 5.64C23.3658 3.38445 20.1435 2 16.2864 2C10.699 2 5.8736 5.1422 3.52441 9.71549L8.14345 13.2311C9.30229 9.85555 12.5086 7.4133 16.2864 7.4133Z" fill="#EB4335"/>
</svg>



